HIERARCHY
ROOT Hips
{
  OFFSET 5.84602e-005 68.8428 3.50346
  CHANNELS 6 Xposition Yposition Zposition Zrotation Xrotation Yrotation
  JOINT Spine
  {
    OFFSET 0 8.597 -4.6522
    CHANNELS 3 Zrotation Xrotation Yrotation
    JOINT Spine1
    {
      OFFSET 0 7.8454 0.4098
      CHANNELS 3 Zrotation Xrotation Yrotation
      JOINT Spine2
      {
        OFFSET 0 9.7078 -2.1609
        CHANNELS 3 Zrotation Xrotation Yrotation
        JOINT Neck
        {
          OFFSET 0 21.8761 -0.4549
          CHANNELS 3 Zrotation Xrotation Yrotation
          JOINT Head
          {
            OFFSET 0 12.3537 3.3602
            CHANNELS 3 Zrotation Xrotation Yrotation
            End Site
            {
              OFFSET 0.0001 18.9506 0.5657
            }
          }
        }
        JOINT LeftShoulder
        {
          OFFSET 2.2086 21.1115 7.2329
          CHANNELS 3 Zrotation Xrotation Yrotation
          JOINT LeftArm
          {
            OFFSET 13.1193 3.0282 -4.8998
            CHANNELS 3 Zrotation Xrotation Yrotation
            JOINT LeftForeArm
            {
              OFFSET 27.4081 -0.0973053 -0.2375
              CHANNELS 3 Zrotation Xrotation Yrotation
              JOINT LeftHand
              {
                OFFSET 22.8641 0.0662994 -0.1369
                CHANNELS 3 Zrotation Xrotation Yrotation
                JOINT LeftHandIndex1
                {
                  OFFSET 8.8614 0.775009 2.4612
                  CHANNELS 3 Zrotation Xrotation Yrotation
                  JOINT LeftHandIndex2
                  {
                    OFFSET 3.3146 -0.808304 0.5841
                    CHANNELS 3 Zrotation Xrotation Yrotation
                    JOINT LeftHandIndex3
                    {
                      OFFSET 2.2628 -0.552002 0.3989
                      CHANNELS 3 Zrotation Xrotation Yrotation
                      End Site
                      {
                        OFFSET 1.6102 -0.4807 0.2612
                      }
                    }
                  }
                }
                JOINT LeftHandMiddle1
                {
                  OFFSET 8.9937 0.895004 0.2143
                  CHANNELS 3 Zrotation Xrotation Yrotation
                  JOINT LeftHandMiddle2
                  {
                    OFFSET 4.0984 0.0113983 -0.0242
                    CHANNELS 3 Zrotation Xrotation Yrotation
                    JOINT LeftHandMiddle3
                    {
                      OFFSET 2.2716 0.00689697 -0.0138001
                      CHANNELS 3 Zrotation Xrotation Yrotation
                      End Site
                      {
                        OFFSET 2.0404 -0.1441 0.0027
                      }
                    }
                  }
                }
                JOINT LeftHandRing1
                {
                  OFFSET 8.5234 0.597198 -2.0164
                  CHANNELS 3 Zrotation Xrotation Yrotation
                  JOINT LeftHandRing2
                  {
                    OFFSET 3.7188 -0.188293 -0.2328
                    CHANNELS 3 Zrotation Xrotation Yrotation
                    JOINT LeftHandRing3
                    {
                      OFFSET 2.1191 -0.106598 -0.1332
                      CHANNELS 3 Zrotation Xrotation Yrotation
                      End Site
                      {
                        OFFSET 1.8737 -0.2304 -0.0886
                      }
                    }
                  }
                }
                JOINT LeftHandPinky1
                {
                  OFFSET 7.9094 -0.601089 -3.4825
                  CHANNELS 3 Zrotation Xrotation Yrotation
                  JOINT LeftHandPinky2
                  {
                    OFFSET 2.2874 -0.477005 -0.6314
                    CHANNELS 3 Zrotation Xrotation Yrotation
                    JOINT LeftHandPinky3
                    {
                      OFFSET 1.6774 -0.349396 -0.4633
                      CHANNELS 3 Zrotation Xrotation Yrotation
                      End Site
                      {
                        OFFSET 1.4888 -0.4091 -0.3416
                      }
                    }
                  }
                }
                JOINT LeftHandThumb1
                {
                  OFFSET 1.833 -1.3875 1.3896
                  CHANNELS 3 Zrotation Xrotation Yrotation
                  JOINT LeftHandThumb2
                  {
                    OFFSET 3.4129 -1.121 2.5732
                    CHANNELS 3 Zrotation Xrotation Yrotation
                    JOINT LeftHandThumb3
                    {
                      OFFSET 2.2474 -0.804199 1.6192
                      CHANNELS 3 Zrotation Xrotation Yrotation
                      End Site
                      {
                        OFFSET 1.6527 -0.5689 1.1317
                      }
                    }
                  }
                }
              }
            }
          }
        }
        JOINT RightShoulder
        {
          OFFSET -2.2086 21.1115 7.2329
          CHANNELS 3 Zrotation Xrotation Yrotation
          JOINT RightArm
          {
            OFFSET -13.1216 3.0287 -4.9007
            CHANNELS 3 Zrotation Xrotation Yrotation
            JOINT RightForeArm
            {
              OFFSET -27.4081 -0.0973053 -0.2375
              CHANNELS 3 Zrotation Xrotation Yrotation
              JOINT RightHand
              {
                OFFSET -22.8641 0.0664063 -0.1369
                CHANNELS 3 Zrotation Xrotation Yrotation
                JOINT RightHandIndex1
                {
                  OFFSET -8.8614 0.774994 2.4612
                  CHANNELS 3 Zrotation Xrotation Yrotation
                  JOINT RightHandIndex2
                  {
                    OFFSET -3.3146 -0.808304 0.5841
                    CHANNELS 3 Zrotation Xrotation Yrotation
                    JOINT RightHandIndex3
                    {
                      OFFSET -2.2628 -0.552002 0.3989
                      CHANNELS 3 Zrotation Xrotation Yrotation
                      End Site
                      {
                        OFFSET -1.6102 -0.4807 0.2612
                      }
                    }
                  }
                }
                JOINT RightHandMiddle1
                {
                  OFFSET -8.9937 0.894989 0.2143
                  CHANNELS 3 Zrotation Xrotation Yrotation
                  JOINT RightHandMiddle2
                  {
                    OFFSET -4.0984 0.0113983 -0.0242
                    CHANNELS 3 Zrotation Xrotation Yrotation
                    JOINT RightHandMiddle3
                    {
                      OFFSET -2.2716 0.00691223 -0.0138001
                      CHANNELS 3 Zrotation Xrotation Yrotation
                      End Site
                      {
                        OFFSET -2.0404 -0.1441 0.0027
                      }
                    }
                  }
                }
                JOINT RightHandRing1
                {
                  OFFSET -8.5234 0.597198 -2.0164
                  CHANNELS 3 Zrotation Xrotation Yrotation
                  JOINT RightHandRing2
                  {
                    OFFSET -3.7188 -0.188309 -0.2328
                    CHANNELS 3 Zrotation Xrotation Yrotation
                    JOINT RightHandRing3
                    {
                      OFFSET -2.1191 -0.106598 -0.1332
                      CHANNELS 3 Zrotation Xrotation Yrotation
                      End Site
                      {
                        OFFSET -1.8737 -0.2304 -0.0886
                      }
                    }
                  }
                }
                JOINT RightHandPinky1
                {
                  OFFSET -7.9094 -0.601105 -3.4825
                  CHANNELS 3 Zrotation Xrotation Yrotation
                  JOINT RightHandPinky2
                  {
                    OFFSET -2.2874 -0.477005 -0.6314
                    CHANNELS 3 Zrotation Xrotation Yrotation
                    JOINT RightHandPinky3
                    {
                      OFFSET -1.6774 -0.349396 -0.4633
                      CHANNELS 3 Zrotation Xrotation Yrotation
                      End Site
                      {
                        OFFSET -1.4888 -0.4091 -0.3416
                      }
                    }
                  }
                }
                JOINT RightHandThumb1
                {
                  OFFSET -1.833 -1.38751 1.3896
                  CHANNELS 3 Zrotation Xrotation Yrotation
                  JOINT RightHandThumb2
                  {
                    OFFSET -3.41299 -1.12099 2.5732
                    CHANNELS 3 Zrotation Xrotation Yrotation
                    JOINT RightHandThumb3
                    {
                      OFFSET -2.24741 -0.804108 1.6192
                      CHANNELS 3 Zrotation Xrotation Yrotation
                      End Site
                      {
                        OFFSET -1.6527 -0.5689 1.1317
                      }
                    }
                  }
                }
              }
            }
          }
        }
      }
    }
  }
  JOINT RightUpLeg
  {
    OFFSET -9.1966 3.8861 -0.7581
    CHANNELS 3 Zrotation Xrotation Yrotation
    JOINT RightLeg
    {
      OFFSET -0.7359 -41.0265 0
      CHANNELS 3 Zrotation Xrotation Yrotation
      JOINT RightFoot
      {
        OFFSET 0 -40.2855 0
        CHANNELS 3 Zrotation Xrotation Yrotation
        JOINT RightToeBase
        {
          OFFSET 0 -5.6122 11.7359
          CHANNELS 3 Zrotation Xrotation Yrotation
          End Site
          {
            OFFSET 0 0 7.8731
          }
        }
      }
    }
  }
  JOINT LeftUpLeg
  {
    OFFSET 9.1965 3.8864 -0.7581
    CHANNELS 3 Zrotation Xrotation Yrotation
    JOINT LeftLeg
    {
      OFFSET 0.7359 -41.0268 0
      CHANNELS 3 Zrotation Xrotation Yrotation
      JOINT LeftFoot
      {
        OFFSET 0 -40.2855 0
        CHANNELS 3 Zrotation Xrotation Yrotation
        JOINT LeftToeBase
        {
          OFFSET 0 -5.6122 11.7359
          CHANNELS 3 Zrotation Xrotation Yrotation
          End Site
          {
            OFFSET 0 0 7.8731
          }
        }
      }
    }
  }
}
MOTION
Frames:	4
Frame Time:	0.0333333
-0.086205 77.6654 5.60247 -180 -87.2657 -180 -0.0342642 4.44613 -0.11393 -0.0599013 8.89228 -0.22621 -0.0599013 8.89226 -0.22621 -9.0567 -6.26026 -0.996552 0.883793 -3.15092 -14.6529 -7.83426 29.0963 0.529201 -70.3829 -4.67762 -64.3643 -26.5012 -22.4712 -30.6903 -12.6426 29.9717 -5.2964 -2.38542e-015 7.95139e-016 3.18055e-015 -2.38542e-015 -7.95139e-016 3.18055e-015 -6.36111e-015 -1.59028e-015 3.18055e-015 -2.38542e-015 7.95139e-016 3.18055e-015 -0.0145875 -8.80713e-005 -6.12525e-007 -2.38542e-015 1.59028e-015 -0 -2.38542e-015 7.95139e-016 3.18055e-015 -0.0188083 -0.00117601 5.98648e-005 2.64834e-031 -4.77083e-015 3.18055e-015 -2.38542e-015 7.95139e-016 3.18055e-015 -0.0122606 -0.00324236 0.00067659 -7.95139e-016 -7.95139e-016 -0 -2.38542e-015 7.95139e-016 3.18055e-015 -2.38542e-015 -7.95139e-016 3.18055e-015 -6.36111e-015 -1.59028e-015 3.18055e-015 -22.3273 2.46387 -11.3997 81.3575 -3.87466 -39.8879 -39.1135 29.1395 91.2379 14.6642 18.278 -9.54597 2.33332e-006 2.19374e-007 -5.82058e-007 2.33332e-006 2.19374e-007 -5.82058e-007 2.33332e-006 2.19374e-007 -5.82058e-007 2.33332e-006 2.19374e-007 -5.82058e-007 0.0149522 -8.86813e-005 -1.57919e-007 2.33332e-006 2.19298e-007 -5.82088e-007 2.33332e-006 2.19374e-007 -5.82058e-007 0.0189749 -0.00119036 -5.38611e-005 2.33331e-006 2.19279e-007 -5.82118e-007 2.33332e-006 2.19374e-007 -5.82058e-007 0.0123535 -0.00326923 -0.00068059 2.3333e-006 2.19325e-007 -5.82148e-007 2.33332e-006 2.19374e-007 -5.82058e-007 2.33332e-006 2.19374e-007 -5.82058e-007 2.33332e-006 2.19374e-007 -5.82058e-007 -8.79539 -14.3051 -7.36879 4.10104 45.3502 -4.65618 -12.3141 14.0313 5.16371 -1.57126e-006 -2.28323e-006 -1.8495e-006 15.713 0.824633 1.33767 -0.383801 14.4852 0.641467 8.95267 9.26504 -0.767333 -4.28269e-007 1.81285e-006 -1.10029e-006 
-0.0861339 77.7678 5.61475 -180 -87.0402 -180 -0.0335887 4.41212 -0.113697 -0.0586273 8.82427 -0.225799 -0.0586273 8.82425 -0.225799 -9.04342 -5.45731 -0.867979 0.880348 -3.21238 -14.7265 -7.92388 29.3947 0.573372 -70.3829 -4.67763 -64.3643 -26.5012 -22.4712 -30.6903 -12.6426 29.9717 -5.29639 3.18055e-015 2.38542e-015 9.54166e-015 6.36111e-015 -3.97569e-015 9.54166e-015 6.36111e-015 -5.56597e-015 9.54166e-015 3.18055e-015 2.38542e-015 9.54166e-015 -0.0145794 -8.73002e-005 -1.70472e-006 7.95139e-015 2.38542e-015 6.36111e-015 3.18055e-015 2.38542e-015 9.54166e-015 -0.0187405 -0.00117553 5.79627e-005 2.38542e-015 -2.38542e-015 6.36111e-015 3.18055e-015 2.38542e-015 9.54166e-015 -0.012295 -0.00324939 0.000680406 3.97569e-015 -3.18055e-015 3.18055e-015 3.18055e-015 2.38542e-015 9.54166e-015 6.36111e-015 -3.97569e-015 9.54166e-015 6.36111e-015 -5.56597e-015 9.54166e-015 -23.0327 2.30241 -11.4551 81.3282 -3.98907 -40.2896 -39.5589 30.0294 91.9056 14.4943 17.8605 -9.62111 -3.60966e-006 8.37337e-007 8.67495e-007 -2.11373e-006 -2.55279e-006 5.93925e-007 -2.33326e-006 -2.19529e-007 5.82229e-007 -3.60966e-006 8.37337e-007 8.67495e-007 0.0149961 -9.16528e-005 2.59767e-006 -2.50471e-006 -2.1523e-007 -3.07555e-007 -3.60966e-006 8.37337e-007 8.67495e-007 0.0190189 -0.00119271 -6.56725e-005 -2.50436e-006 -2.15338e-007 -3.07529e-007 -3.60966e-006 8.37337e-007 8.67495e-007 0.0123311 -0.00326673 -0.000676405 -2.33324e-006 -2.19481e-007 5.82319e-007 -3.60966e-006 8.37337e-007 8.67495e-007 -2.11373e-006 -2.55279e-006 5.93925e-007 -2.33326e-006 -2.19529e-007 5.82229e-007 -8.81006 -14.0267 -7.39485 4.10097 45.3498 -4.65608 -12.3141 14.0317 5.16376 -1.55321e-006 -3.25752e-006 -2.30755e-007 15.7126 1.06641 1.33496 -0.383802 14.4857 0.641476 8.95259 9.26471 -0.767302 -1.38681e-006 2.93294e-007 9.31655e-007 
-0.086064 77.8702 5.62692 -180 -86.8147 -180 -0.0329118 4.3781 -0.113465 -0.0573506 8.75623 -0.225391 -0.0573506 8.75624 -0.225391 -9.03218 -4.65305 -0.739588 0.876828 -3.27386 -14.8 -8.01404 29.6931 0.618212 -70.3829 -4.67764 -64.3643 -26.5012 -22.4712 -30.6903 -12.6426 29.9717 -5.29639 -9.54166e-015 -2.38542e-015 3.18055e-015 -1.97173e-006 -1.76618e-006 -2.50566e-007 -2.14631e-006 4.48003e-007 5.89369e-007 -9.54166e-015 -2.38542e-015 3.18055e-015 -0.0146086 -8.73793e-005 -3.50097e-006 -2.14755e-006 4.4792e-007 5.89427e-007 -9.54166e-015 -2.38542e-015 3.18055e-015 -0.0187097 -0.00117545 5.89689e-005 -2.14789e-006 4.47808e-007 5.89469e-007 -9.54166e-015 -2.38542e-015 3.18055e-015 -0.0123448 -0.00326667 0.000681704 -2.14734e-006 4.47676e-007 5.89536e-007 -9.54166e-015 -2.38542e-015 3.18055e-015 -1.97173e-006 -1.76618e-006 -2.50566e-007 -2.14631e-006 4.48003e-007 5.89369e-007 -23.7381 2.1417 -11.5125 81.2982 -4.1033 -40.6914 -40.0202 30.9145 92.5872 14.3243 17.4433 -9.6974 -3.97569e-016 3.37934e-015 1.59028e-015 -2.33316e-006 -2.19729e-007 5.82576e-007 -1.19271e-015 -6.4605e-016 1.59028e-015 -3.97569e-016 3.37934e-015 1.59028e-015 0.0149973 -9.09081e-005 -5.1512e-006 3.97569e-016 2.83268e-015 4.77083e-015 -3.97569e-016 3.37934e-015 1.59028e-015 0.0189633 -0.00118737 -6.53172e-005 7.95139e-016 -3.926e-015 -1.59028e-015 -3.97569e-016 3.37934e-015 1.59028e-015 0.0122986 -0.00325312 -0.00067445 -1.00692e-031 3.62782e-015 1.59028e-015 -3.97569e-016 3.37934e-015 1.59028e-015 -2.33316e-006 -2.19729e-007 5.82576e-007 -1.19271e-015 -6.4605e-016 1.59028e-015 -8.82458 -13.7484 -7.42081 4.10091 45.3494 -4.65599 -12.3141 14.0321 5.1638 1.51233e-006 -8.89563e-007 1.90593e-006 15.7122 1.30803 1.33225 -0.383803 14.4866 0.641509 8.95249 9.26412 -0.767252 2.31839e-006 -9.83536e-008 4.5559e-007 
-0.0859914 77.9726 5.63899 -180 -86.5892 -180 -0.0322339 4.3441 -0.113236 -0.0560715 8.68827 -0.224988 -0.0560715 8.68825 -0.224988 -9.0226 -3.84893 -0.611455 0.873228 -3.33531 -14.8736 -8.10472 29.9913 0.663716 -70.3829 -4.67764 -64.3643 -26.5012 -22.4712 -30.6903 -12.6426 29.9717 -5.29639 3.18055e-015 2.38542e-015 -6.36111e-015 7.95139e-015 -1.59028e-015 -6.36111e-015 1.76556e-031 1.59028e-015 -6.36111e-015 3.18055e-015 2.38542e-015 -6.36111e-015 -0.0146413 -8.8494e-005 -3.56116e-006 -1.26027e-006 4.80964e-007 2.96614e-007 3.18055e-015 2.38542e-015 -6.36111e-015 -0.0187684 -0.00117706 5.82809e-005 -1.25969e-006 4.81106e-007 2.96635e-007 3.18055e-015 2.38542e-015 -6.36111e-015 -0.0123305 -0.00326605 0.000680071 -0 -1.59028e-015 -0 3.18055e-015 2.38542e-015 -6.36111e-015 7.95139e-015 -1.59028e-015 -6.36111e-015 1.76556e-031 1.59028e-015 -6.36111e-015 -24.4434 1.98166 -11.5718 81.2674 -4.21729 -41.0933 -40.498 31.7942 93.2833 14.1541 17.0263 -9.7748 1.27649e-006 -1.05652e-006 -2.85379e-007 7.95139e-016 -8.19987e-015 1.59028e-015 2.333e-006 2.1997e-007 -5.83099e-007 1.27649e-006 -1.05652e-006 -2.85379e-007 0.0149996 -8.88403e-005 1.00071e-006 2.333e-006 2.19894e-007 -5.8313e-007 1.27649e-006 -1.05652e-006 -2.85379e-007 0.0189982 -0.00119248 -5.77685e-005 2.33299e-006 2.19875e-007 -5.8316e-007 1.27649e-006 -1.05652e-006 -2.85379e-007 0.012286 -0.00325151 -0.000677959 2.16341e-006 2.20149e-007 -1.47546e-006 1.27649e-006 -1.05652e-006 -2.85379e-007 7.95139e-016 -8.19987e-015 1.59028e-015 2.333e-006 2.1997e-007 -5.83099e-007 -8.83898 -13.47 -7.44667 4.10084 45.349 -4.65587 -12.314 14.0326 5.16385 1.76157e-006 5.64694e-006 -1.02362e-006 15.7119 1.54972 1.32954 -0.383803 14.4874 0.641531 8.95241 9.26361 -0.767207 -2.08076e-006 4.41285e-007 1.39672e-006 
